<?xml version="1.0" encoding="UTF-8" standalone="no"?>
<svg
   version="1.1"
   id="Layer_1"
   x="0px"
   y="0px"
   width="100%"
   viewBox="0 0 1335 1081"
   enable-background="new 0 0 1335 1081"
   xml:space="preserve"
   sodipodi:docname="wf.svg"
   inkscape:version="1.2.2 (b0a84865, 2022-12-01)"
   xmlns:inkscape="http://www.inkscape.org/namespaces/inkscape"
   xmlns:sodipodi="http://sodipodi.sourceforge.net/DTD/sodipodi-0.dtd"
   xmlns="http://www.w3.org/2000/svg"
   xmlns:svg="http://www.w3.org/2000/svg"><defs
   id="defs124" /><sodipodi:namedview
   id="namedview122"
   pagecolor="#ffffff"
   bordercolor="#000000"
   borderopacity="0.25"
   inkscape:showpageshadow="2"
   inkscape:pageopacity="0.0"
   inkscape:pagecheckerboard="0"
   inkscape:deskcolor="#d1d1d1"
   showgrid="false"
   inkscape:zoom="0.50383782"
   inkscape:cx="457.48848"
   inkscape:cy="532.90958"
   inkscape:window-width="1512"
   inkscape:window-height="831"
   inkscape:window-x="0"
   inkscape:window-y="38"
   inkscape:window-maximized="0"
   inkscape:current-layer="Layer_1" />

<path
   fill="#5673C3"
   opacity="1.000000"
   stroke="none"
   d=" M444.995422,23.163265   C455.521057,16.886154 466.879791,13.956804 479.165009,13.962714   C605.147156,14.023324 731.129272,14.028018 857.111450,13.955204   C869.375916,13.948116 880.810059,16.530499 891.690430,23.356384   C890.456177,25.210724 889.028442,26.781191 887.295349,27.862276   C868.016357,39.888485 857.561462,55.828316 857.638550,79.935738   C858.182068,249.968658 857.926270,420.004120 857.936096,590.038757   C857.936218,592.699585 858.068970,595.360474 858.139832,598.021301   C858.093323,603.685059 858.006836,609.348877 858.006226,615.012634   C857.997375,695.005859 857.930481,774.999207 858.082520,854.992126   C858.103088,865.798340 850.417908,878.068237 835.063660,879.969177   C823.328918,881.421997 810.882080,872.608337 808.110107,860.818115   C807.366211,857.653870 807.045105,854.318665 807.043518,851.061768   C806.990112,743.570862 806.999878,636.079956 806.998657,528.589050   C806.998535,519.351257 800.446838,512.246277 791.721619,512.007751   C783.741516,511.789673 776.239502,519.626770 776.005920,528.440796   C775.970642,529.773071 776.000183,531.107117 776.000183,532.440308   C776.000122,680.094482 775.940430,827.748657 776.097656,975.402649   C776.112427,989.290771 765.990967,1001.686829 750.686157,1001.656433   C737.056091,1001.629395 726.605042,993.383118 725.016846,976.617371   C724.891663,975.295959 724.999451,973.952515 724.999451,972.619263   C724.999390,741.638855 724.989990,510.658417 725.041138,279.677979   C725.042786,272.159698 722.319336,266.921478 715.276062,263.608459   C706.021118,259.255157 694.827026,266.742401 694.015747,276.996338   C693.910950,278.321320 694.000122,279.661652 694.000122,280.994873   C694.000183,463.146118 693.955139,645.297363 694.062927,827.448547   C694.074951,847.848877 675.289429,859.424561 657.177612,851.449219   C648.155884,847.476624 643.845764,839.373230 643.015930,829.563599   C642.903931,828.239868 642.999817,826.898438 642.999817,825.565247   C642.999756,672.411560 643.000671,519.257874 642.997620,366.104156   C642.997437,357.321808 638.784790,351.782257 630.305298,350.005890   C619.797302,347.804535 612.847412,355.776428 612.027222,363.518494   C611.870117,365.001892 612.000305,366.515869 612.000305,368.015747   C612.000122,537.668030 611.953857,707.320435 612.080139,876.972595   C612.091370,892.002258 603.088196,904.261841 586.502563,904.706116   C573.239319,905.061340 561.259888,895.303772 561.101990,879.492676   C560.767395,845.998840 560.999878,812.499390 560.999878,779.002197   C560.999817,691.009644 561.002258,603.017090 560.996582,515.024536   C560.995911,504.383209 554.745056,497.954407 544.501282,498.000610   C536.805603,498.035309 530.415344,504.102631 530.012573,511.790344   C529.942871,513.119934 530.000549,514.456238 530.000549,515.789490   C530.000549,608.281677 530.001526,700.773804 529.999512,793.265991   C529.999268,805.466553 524.153748,814.860046 513.497009,818.694763   C504.434692,821.955872 492.511017,820.524231 484.781342,811.203857   C481.169159,806.848267 478.965302,801.837952 478.968933,795.929138   C479.009125,730.268616 478.982361,664.608154 478.981750,598.018433   C479.011108,596.589844 479.051117,596.090515 479.051147,595.591187   C479.058289,420.643341 479.117432,245.695435 478.847473,70.748032   C478.837677,64.392220 476.478760,57.614605 473.665985,51.780170   C468.378296,40.812222 458.956909,33.501259 448.741425,27.203156   C447.235107,26.274467 446.231598,24.530201 444.995422,23.163265  M642.999817,241.507629   C642.999817,238.176956 643.038635,234.845734 642.992554,231.515686   C642.839050,220.427856 635.281738,215.329056 627.483276,215.348938   C619.572571,215.369110 612.067139,220.568741 612.017700,231.550766   C611.948730,246.871582 611.981873,262.192963 612.007263,277.514038   C612.022156,286.495697 619.133118,294.014374 627.518433,293.994629   C635.930054,293.974823 642.974060,286.485748 642.993591,277.477264   C643.018799,265.819916 642.999756,254.162521 642.999817,241.507629  M804.077942,388.614471   C799.584412,383.744202 794.326355,381.099762 787.547791,383.025787   C781.258240,384.812866 777.192322,389.267365 776.450378,395.390564   C775.577698,402.591766 775.586792,410.035065 776.333801,417.257477   C777.014771,423.841614 783.296753,429.071320 789.633240,429.976501   C795.408875,430.801575 803.057373,427.514709 805.184570,421.981750   C806.768066,417.862793 806.938049,413.012360 806.886108,408.497528   C806.811646,402.011566 808.566101,395.214600 804.077942,388.614471  z"
   id="path93" />
<path
   fill="#0ACB8B"
   opacity="1.000000"
   stroke="none"
   d=" M858.567139,598.012634   C858.068970,595.360474 857.936218,592.699585 857.936096,590.038757   C857.926270,420.004120 858.182068,249.968658 857.638550,79.935738   C857.561462,55.828316 868.016357,39.888485 887.295349,27.862276   C889.028442,26.781191 890.456177,25.210724 892.014771,23.515705   C902.887085,19.340435 913.584595,14.803124 924.709290,11.906627   C934.618164,9.326683 944.956482,8.113197 955.185364,7.127223   C964.894714,6.191323 974.709229,6.022848 984.475098,6.066021   C1003.434753,6.149837 1022.068298,9.198789 1040.119995,14.751388   C1053.631348,18.907433 1067.198730,23.489378 1079.845947,29.703827   C1098.452271,38.846500 1116.186401,49.623135 1132.459717,62.772667   C1153.579102,79.838150 1171.170410,99.939491 1185.221069,122.966896   C1197.065796,142.379059 1206.316406,163.080688 1212.083740,185.268066   C1217.324951,205.432281 1223.250244,225.417984 1228.786499,245.506485   C1235.578003,270.149567 1242.243286,294.827393 1249.029297,319.471985   C1255.642456,343.487885 1262.338623,367.480835 1268.998657,391.483765   C1275.658691,415.486694 1282.348633,439.481384 1288.971313,463.494629   C1295.378174,486.725189 1301.773682,509.959137 1308.068726,533.220154   C1315.085083,559.146423 1322.796509,584.923584 1328.630371,611.116394   C1332.201416,627.150330 1331.488037,643.727295 1329.251953,660.281738   C1325.596924,687.340027 1315.568359,711.612976 1299.996826,733.704529   C1287.326904,751.679565 1271.321655,766.277161 1252.565796,777.762146   C1235.838623,788.004944 1217.710938,794.832092 1198.514771,798.652588   C1191.941406,799.960938 1185.181274,800.539490 1178.476318,800.917480   C1171.799438,801.293823 1165.084473,801.037598 1158.386597,800.992737   C1140.306641,800.871643 1123.092407,796.570923 1106.353638,790.068787   C1081.975830,780.599060 1061.193115,765.822998 1043.989868,746.290100   C1034.142700,735.109497 1025.302002,723.038879 1016.078064,711.314026   C1006.866150,699.604553 997.806213,687.775269 988.559143,676.093933   C980.313660,665.677795 971.744507,655.515137 963.609863,645.014709   C955.208435,634.169800 944.570557,625.987671 933.192383,618.689758   C918.584167,609.320190 902.449829,603.694641 885.514832,600.304077   C881.826050,599.565491 878.025940,599.331238 874.264160,599.021545   C869.180786,598.602966 864.084961,598.335938 858.567139,598.012634  M949.547607,386.001801   C968.737854,385.936584 985.419434,370.602356 986.185852,353.006653   C987.160461,330.630890 972.430237,315.079742 951.523804,314.018250   C931.723206,313.012909 915.124634,328.046295 914.249512,348.755493   C913.476624,367.045044 927.716797,384.397888 949.547607,386.001801  M1064.034302,268.834900   C1063.715332,267.912262 1063.176636,267.005188 1063.109863,266.064636   C1061.929443,249.456741 1046.372925,235.981155 1027.050537,236.024017   C1004.685974,236.073624 987.161560,259.640839 993.186401,281.395538   C997.106262,295.549683 1012.267090,307.866455 1025.936523,308.001984   C1048.625488,308.226990 1064.172363,292.642334 1064.034302,268.834900  M1050.941895,455.486145   C1065.057983,444.046906 1067.549438,424.306091 1059.844482,410.547943   C1052.391357,397.239197 1040.677002,391.469910 1025.581299,391.981842   C1003.856384,392.718597 984.398926,417.177094 994.661438,440.841614   C1004.119202,462.650299 1029.090820,471.650635 1050.941895,455.486145  M1086.953003,319.377502   C1079.108521,324.243805 1073.599243,331.348816 1071.269531,339.953491   C1063.728271,367.805817 1089.733887,390.333679 1112.878540,385.190125   C1137.288696,379.765381 1148.746094,353.436401 1137.479614,332.307800   C1128.477173,315.425140 1104.853027,308.305298 1086.953003,319.377502  z"
   id="path95" />
<path
   fill="#0ACB8B"
   opacity="1.000000"
   stroke="none"
   d=" M444.631927,23.086082   C446.231598,24.530201 447.235107,26.274467 448.741425,27.203156   C458.956909,33.501259 468.378296,40.812222 473.665985,51.780170   C476.478760,57.614605 478.837677,64.392220 478.847473,70.748032   C479.117432,245.695435 479.058289,420.643341 479.051147,595.591187   C479.051117,596.090515 479.011108,596.589844 478.923553,597.554199   C450.618774,598.527405 424.103455,604.877197 400.366302,620.900330   C386.731903,630.103760 375.387695,641.507812 365.556915,654.699463   C355.570557,668.099915 344.794525,680.909607 334.468567,694.059875   C322.737518,708.999573 311.438934,724.290100 299.390533,738.966980   C274.211090,769.639587 242.748917,790.468811 203.314636,797.940613   C194.483383,799.613953 185.432419,800.327576 176.445633,800.944214   C145.196930,803.088440 116.124634,795.409546 88.943535,780.379150   C68.646461,769.155457 51.880146,753.747925 38.039101,735.160400   C23.565487,715.723328 14.039210,693.916626 9.428217,670.302185   C6.952191,657.621582 6.052031,644.420532 6.248960,631.481812   C6.528560,613.111328 11.461547,595.385498 16.551603,577.756653   C23.957859,552.105957 30.851036,526.307129 37.975288,500.574921   C44.273155,477.827515 50.594021,455.086456 56.893440,432.339478   C63.585537,408.174561 70.279823,384.010223 76.944496,359.837738   C83.305664,336.766052 89.617813,313.680847 95.973213,290.607544   C105.959381,254.352768 115.868019,218.076233 125.992516,181.860077   C133.316788,155.660553 145.060669,131.514709 160.924469,109.423851   C172.975357,92.642555 186.859665,77.663338 202.826797,64.356613   C221.390137,48.886276 242.112839,37.269447 263.628326,26.805086   C280.289246,18.701811 298.000793,13.740309 316.090027,9.993963   C335.809143,5.910072 355.835327,4.746263 375.760651,6.232839   C399.390106,7.995770 422.901978,11.445211 444.631927,23.086082  M344.834747,280.501099   C344.833954,275.334991 345.024384,270.160400 344.796234,265.004333   C344.137909,250.127869 333.487061,238.281143 321.148346,237.009995   C315.399078,236.417679 309.600037,236.073929 303.821442,236.045212   C285.441559,235.953812 272.966583,248.468689 272.889099,266.937714   C272.831055,280.769867 272.886353,294.602448 272.866058,308.434814   C272.863495,310.178772 272.707855,311.922485 272.612854,313.877380   C270.135468,313.877380 268.310089,313.875061 266.484711,313.877716   C251.986328,313.898804 237.483871,313.715515 222.990814,314.004303   C210.258850,314.258026 198.444336,323.408752 196.174881,335.929321   C194.659195,344.291229 194.651001,353.122345 195.324585,361.636139   C196.188004,372.549377 207.933060,384.343903 218.779388,384.953613   C234.719406,385.849731 250.723938,385.600586 266.701111,385.830994   C268.630005,385.858795 270.559631,385.834778 272.877380,385.834778   C272.877380,388.333740 272.877045,390.135101 272.877441,391.936462   C272.880585,406.102142 273.042480,420.270081 272.842163,434.432861   C272.644043,448.442078 283.523346,460.027252 293.813263,462.085907   C300.706055,463.464874 307.935791,464.256470 314.926788,463.838684   C334.676575,462.658569 344.791870,448.802460 344.830872,433.102448   C344.851990,424.603058 344.834717,416.103607 344.834747,407.604187   C344.834747,400.494354 344.834747,393.384552 344.834747,385.834778   C347.205902,385.834778 348.999756,385.834778 350.793610,385.834778   C364.626007,385.834717 378.460236,385.693176 392.290253,385.873962   C406.361206,386.057831 420.229858,375.315979 421.183929,363.324371   C421.720184,356.584351 421.246490,349.739410 422.107513,343.055054   C423.750092,330.302948 411.376343,314.117157 393.731079,313.915436   C380.233765,313.761108 366.733276,313.879913 353.234222,313.877441   C350.613708,313.876953 347.993225,313.877380 344.834747,313.877380   C344.834747,302.738129 344.834747,292.119415 344.834747,280.501099  z"
   id="path97" />
<path
   fill="#5673C3"
   opacity="1.000000"
   stroke="none"
   d=" M569.814819,984.291992   C558.814636,973.873901 557.320862,958.746887 567.521362,947.507324   C576.378601,937.747742 589.042847,935.768188 600.916382,943.617859   C612.679077,951.394531 615.374207,967.384399 607.638916,978.890198   C599.679871,990.728821 583.897217,993.776428 572.214050,985.744324   C571.544373,985.283936 570.790833,984.945435 569.814819,984.291992  z"
   id="path99" />
<path
   fill="#5673C3"
   opacity="1.000000"
   stroke="none"
   d=" M813.216309,927.485474   C818.279419,919.156067 825.628296,915.081909 834.728271,914.044495   C844.061768,912.980530 856.969116,921.386658 859.739624,930.546204   C864.088745,944.924927 858.265442,959.735046 842.414185,964.265930   C828.355225,968.284424 813.720520,959.188232 810.803894,944.911072   C809.522034,938.636292 811.191589,933.369507 813.216309,927.485474  z"
   id="path101" />
<path
   fill="#5673C3"
   opacity="1.000000"
   stroke="none"
   d=" M503.235809,851.050171   C517.236877,852.483459 524.056213,859.817688 523.900146,871.613220   C523.783142,880.452576 516.944824,891.359680 502.142181,890.129456   C492.713806,889.345825 485.055420,881.693665 484.999878,871.486633   C484.941376,860.737549 490.248627,854.272766 501.030060,851.908630   C501.655975,851.771362 502.222900,851.365173 503.235809,851.050171  z"
   id="path103" />
<path
   fill="#5673C3"
   opacity="1.000000"
   stroke="none"
   d=" M738.644531,1072.276489   C731.852722,1065.424072 730.372131,1057.785889 734.051270,1049.285889   C737.380737,1041.593872 744.310181,1038.426270 751.765747,1038.250732   C762.211914,1038.005005 770.561829,1045.934204 770.951233,1055.473755   C771.489563,1068.664307 764.385132,1076.843140 752.965759,1077.059082   C747.660828,1077.159180 742.727112,1076.776855 738.644531,1072.276489  z"
   id="path105" />


<path
   fill="#FEFFFF"
   opacity="1.000000"
   stroke="none"
   d=" M949.095947,386.001770   C927.716797,384.397888 913.476624,367.045044 914.249512,348.755493   C915.124634,328.046295 931.723206,313.012909 951.523804,314.018250   C972.430237,315.079742 987.160461,330.630890 986.185852,353.006653   C985.419434,370.602356 968.737854,385.936584 949.095947,386.001770  z"
   id="path111" />
<path
   fill="#FEFFFE"
   opacity="1.000000"
   stroke="none"
   d=" M1064.071411,269.286072   C1064.172363,292.642334 1048.625488,308.226990 1025.936523,308.001984   C1012.267090,307.866455 997.106262,295.549683 993.186401,281.395538   C987.161560,259.640839 1004.685974,236.073624 1027.050537,236.024017   C1046.372925,235.981155 1061.929443,249.456741 1063.109863,266.064636   C1063.176636,267.005188 1063.715332,267.912262 1064.071411,269.286072  z"
   id="path113" />
<path
   fill="#FEFFFF"
   opacity="1.000000"
   stroke="none"
   d=" M1050.664917,455.713135   C1029.090820,471.650635 1004.119202,462.650299 994.661438,440.841614   C984.398926,417.177094 1003.856384,392.718597 1025.581299,391.981842   C1040.677002,391.469910 1052.391357,397.239197 1059.844482,410.547943   C1067.549438,424.306091 1065.057983,444.046906 1050.664917,455.713135  z"
   id="path115" />
<path
   fill="#FEFFFE"
   opacity="1.000000"
   stroke="none"
   d=" M1087.269897,319.191650   C1104.853027,308.305298 1128.477173,315.425140 1137.479614,332.307800   C1148.746094,353.436401 1137.288696,379.765381 1112.878540,385.190125   C1089.733887,390.333679 1063.728271,367.805817 1071.269531,339.953491   C1073.599243,331.348816 1079.108521,324.243805 1087.269897,319.191650  z"
   id="path117" />
<path
   fill="#FFFFFF"
   opacity="1.000000"
   stroke="none"
   d=" M344.834747,281.000916   C344.834747,292.119415 344.834747,302.738129 344.834747,313.877380   C347.993225,313.877380 350.613708,313.876953 353.234222,313.877441   C366.733276,313.879913 380.233765,313.761108 393.731079,313.915436   C411.376343,314.117157 423.750092,330.302948 422.107513,343.055054   C421.246490,349.739410 421.720184,356.584351 421.183929,363.324371   C420.229858,375.315979 406.361206,386.057831 392.290253,385.873962   C378.460236,385.693176 364.626007,385.834717 350.793610,385.834778   C348.999756,385.834778 347.205902,385.834778 344.834747,385.834778   C344.834747,393.384552 344.834747,400.494354 344.834747,407.604187   C344.834717,416.103607 344.851990,424.603058 344.830872,433.102448   C344.791870,448.802460 334.676575,462.658569 314.926788,463.838684   C307.935791,464.256470 300.706055,463.464874 293.813263,462.085907   C283.523346,460.027252 272.644043,448.442078 272.842163,434.432861   C273.042480,420.270081 272.880585,406.102142 272.877441,391.936462   C272.877045,390.135101 272.877380,388.333740 272.877380,385.834778   C270.559631,385.834778 268.630005,385.858795 266.701111,385.830994   C250.723938,385.600586 234.719406,385.849731 218.779388,384.953613   C207.933060,384.343903 196.188004,372.549377 195.324585,361.636139   C194.651001,353.122345 194.659195,344.291229 196.174881,335.929321   C198.444336,323.408752 210.258850,314.258026 222.990814,314.004303   C237.483871,313.715515 251.986328,313.898804 266.484711,313.877716   C268.310089,313.875061 270.135468,313.877380 272.612854,313.877380   C272.707855,311.922485 272.863495,310.178772 272.866058,308.434814   C272.886353,294.602448 272.831055,280.769867 272.889099,266.937714   C272.966583,248.468689 285.441559,235.953812 303.821442,236.045212   C309.600037,236.073929 315.399078,236.417679 321.148346,237.009995   C333.487061,238.281143 344.137909,250.127869 344.796234,265.004333   C345.024384,270.160400 344.833954,275.334991 344.834747,281.000916  z"
   id="path119" />
</svg>
